<svg xmlns="http://www.w3.org/2000/svg" xmlns:xlink="http://www.w3.org/1999/xlink" viewBox="0 0 795.09 848.38"><defs><linearGradient id="New_Gradient_Swatch_1" x1="202.46" y1="602.76" x2="997.54" y2="602.76" gradientUnits="userSpaceOnUse"><stop offset="0" stop-color="#f7cac9"/><stop offset="0.47" stop-color="#daccd5"/><stop offset="1" stop-color="#b3cee5"/></linearGradient></defs><g style="isolation:isolate"><g id="Layer_1" data-name="Layer 1"><path d="M291.31,527.24V807.07a44.43,44.43,0,1,1-88.85,0V527.24a44.43,44.43,0,0,1,88.85,0Z" transform="translate(-202.46 -178.57)"/><path d="M409,430.26V898.13a44.43,44.43,0,1,1-88.85,0V430.26a44.43,44.43,0,1,1,88.85,0Z" transform="translate(-202.46 -178.57)"/><path d="M526.72,573.87v233.2a44.43,44.43,0,1,1-88.85,0V573.87a44.43,44.43,0,1,1,88.85,0Z" transform="translate(-202.46 -178.57)"/><path d="M644.42,223V982.53a44.42,44.42,0,0,1-88.84,0V223a44.42,44.42,0,1,1,88.84,0Z" transform="translate(-202.46 -178.57)"/><path d="M762.13,496.88V858.16a44.43,44.43,0,1,1-88.85,0V496.88a44.43,44.43,0,0,1,88.85,0Z" transform="translate(-202.46 -178.57)"/><path d="M879.84,560.55V864.07a44.43,44.43,0,1,1-88.85,0V560.55a44.43,44.43,0,1,1,88.85,0Z" transform="translate(-202.46 -178.57)"/><path d="M997.54,510.21V748.58a44.43,44.43,0,0,1-88.85,0V510.21a44.43,44.43,0,0,1,88.85,0Z" transform="translate(-202.46 -178.57)"/><path d="M284.18,527.24V807.07a37.3,37.3,0,0,1-74.6,0V527.24a37.3,37.3,0,1,1,74.6,0Z" transform="translate(-202.46 -178.57)" style="mix-blend-mode:screen"/><path d="M401.89,430.26V898.13a37.3,37.3,0,0,1-74.6,0V430.26a37.3,37.3,0,1,1,74.6,0Z" transform="translate(-202.46 -178.57)" style="mix-blend-mode:screen"/><path d="M519.59,573.87v233.2a37.3,37.3,0,0,1-74.6,0V573.87a37.3,37.3,0,1,1,74.6,0Z" transform="translate(-202.46 -178.57)" style="mix-blend-mode:screen"/><path d="M637.3,223V982.53a37.3,37.3,0,1,1-74.6,0V223a37.3,37.3,0,0,1,74.6,0Z" transform="translate(-202.46 -178.57)" style="mix-blend-mode:screen"/><path d="M755,496.88V858.16a37.3,37.3,0,1,1-74.6,0V496.88a37.3,37.3,0,0,1,74.6,0Z" transform="translate(-202.46 -178.57)" style="mix-blend-mode:screen"/><path d="M872.71,560.55V864.07a37.3,37.3,0,1,1-74.6,0V560.55a37.3,37.3,0,1,1,74.6,0Z" transform="translate(-202.46 -178.57)" style="mix-blend-mode:screen"/><path d="M990.42,510.21V748.58a37.3,37.3,0,0,1-74.6,0V510.21a37.3,37.3,0,1,1,74.6,0Z" transform="translate(-202.46 -178.57)" style="mix-blend-mode:screen"/><path d="M409,600.13v298a44.43,44.43,0,1,1-88.85,0V751.82C384.22,818.62,403.38,693,409,600.13Z" transform="translate(-202.46 -178.57)" opacity="0.5" style="mix-blend-mode:overlay"/><path d="M526.72,617.94V807.07a44.43,44.43,0,1,1-88.85,0V769.63C501.92,836.43,521.09,710.85,526.72,617.94Z" transform="translate(-202.46 -178.57)" opacity="0.5" style="mix-blend-mode:overlay"/><path d="M644.42,518.51v464a44.42,44.42,0,0,1-88.84,0V672.87C620.09,739.92,639,611.56,644.42,518.51Z" transform="translate(-202.46 -178.57)" opacity="0.5" style="mix-blend-mode:overlay"/><path d="M879.84,589.76V864.07a44.43,44.43,0,1,1-88.85,0v-120C855.51,811.17,874.42,682.81,879.84,589.76Z" transform="translate(-202.46 -178.57)" opacity="0.5" style="mix-blend-mode:overlay"/><path d="M997.54,529.2V748.58a44.43,44.43,0,0,1-88.85,0v-65C973.21,750.61,992.13,622.25,997.54,529.2Z" transform="translate(-202.46 -178.57)" opacity="0.5" style="mix-blend-mode:overlay"/><path d="M762.13,554.13v304a44.43,44.43,0,1,1-88.85,0V708.5C737.8,775.54,756.72,647.19,762.13,554.13Z" transform="translate(-202.46 -178.57)" opacity="0.5" style="mix-blend-mode:overlay"/><path d="M291.31,585.88V807.07a44.43,44.43,0,1,1-88.85,0V761.15C270.86,830.55,287.42,678.43,291.31,585.88Z" transform="translate(-202.46 -178.57)" opacity="0.5" style="mix-blend-mode:overlay"/><path d="M291.31,527.24V807.07a44.43,44.43,0,1,1-88.85,0V527.24a44.43,44.43,0,0,1,88.85,0Z" transform="translate(-202.46 -178.57)" fill="url(#New_Gradient_Swatch_1)"/><path d="M409,430.26V898.13a44.43,44.43,0,1,1-88.85,0V430.26a44.43,44.43,0,1,1,88.85,0Z" transform="translate(-202.46 -178.57)" fill="url(#New_Gradient_Swatch_1)"/><path d="M526.72,573.87v233.2a44.43,44.43,0,1,1-88.85,0V573.87a44.43,44.43,0,1,1,88.85,0Z" transform="translate(-202.46 -178.57)" fill="url(#New_Gradient_Swatch_1)"/><path d="M644.42,223V982.53a44.42,44.42,0,0,1-88.84,0V223a44.42,44.42,0,1,1,88.84,0Z" transform="translate(-202.46 -178.57)" fill="url(#New_Gradient_Swatch_1)"/><path d="M762.13,496.88V858.16a44.43,44.43,0,1,1-88.85,0V496.88a44.43,44.43,0,0,1,88.85,0Z" transform="translate(-202.46 -178.57)" fill="url(#New_Gradient_Swatch_1)"/><path d="M879.84,560.55V864.07a44.43,44.43,0,1,1-88.85,0V560.55a44.43,44.43,0,1,1,88.85,0Z" transform="translate(-202.46 -178.57)" fill="url(#New_Gradient_Swatch_1)"/><path d="M997.54,510.21V748.58a44.43,44.43,0,0,1-88.85,0V510.21a44.43,44.43,0,0,1,88.85,0Z" transform="translate(-202.46 -178.57)" fill="url(#New_Gradient_Swatch_1)"/><path d="M284.18,527.24V807.07a37.3,37.3,0,0,1-74.6,0V527.24a37.3,37.3,0,1,1,74.6,0Z" transform="translate(-202.46 -178.57)" fill="url(#New_Gradient_Swatch_1)"/><path d="M401.89,430.26V898.13a37.3,37.3,0,0,1-74.6,0V430.26a37.3,37.3,0,1,1,74.6,0Z" transform="translate(-202.46 -178.57)" fill="url(#New_Gradient_Swatch_1)"/><path d="M519.59,573.87v233.2a37.3,37.3,0,0,1-74.6,0V573.87a37.3,37.3,0,1,1,74.6,0Z" transform="translate(-202.46 -178.57)" fill="url(#New_Gradient_Swatch_1)"/><path d="M637.3,223V982.53a37.3,37.3,0,1,1-74.6,0V223a37.3,37.3,0,0,1,74.6,0Z" transform="translate(-202.46 -178.57)" fill="url(#New_Gradient_Swatch_1)"/><path d="M755,496.88V858.16a37.3,37.3,0,1,1-74.6,0V496.88a37.3,37.3,0,0,1,74.6,0Z" transform="translate(-202.46 -178.57)" fill="url(#New_Gradient_Swatch_1)"/><path d="M872.71,560.55V864.07a37.3,37.3,0,1,1-74.6,0V560.55a37.3,37.3,0,1,1,74.6,0Z" transform="translate(-202.46 -178.57)" fill="url(#New_Gradient_Swatch_1)"/><path d="M990.42,510.21V748.58a37.3,37.3,0,0,1-74.6,0V510.21a37.3,37.3,0,1,1,74.6,0Z" transform="translate(-202.46 -178.57)" fill="url(#New_Gradient_Swatch_1)"/><path d="M409,600.13v298a44.43,44.43,0,1,1-88.85,0V751.82C384.22,818.62,403.38,693,409,600.13Z" transform="translate(-202.46 -178.57)" fill="url(#New_Gradient_Swatch_1)"/><path d="M526.72,617.94V807.07a44.43,44.43,0,1,1-88.85,0V769.63C501.92,836.43,521.09,710.85,526.72,617.94Z" transform="translate(-202.46 -178.57)" fill="url(#New_Gradient_Swatch_1)"/><path d="M644.42,518.51v464a44.42,44.42,0,0,1-88.84,0V672.87C620.09,739.92,639,611.56,644.42,518.51Z" transform="translate(-202.46 -178.57)" fill="url(#New_Gradient_Swatch_1)"/><path d="M879.84,589.76V864.07a44.43,44.43,0,1,1-88.85,0v-120C855.51,811.17,874.42,682.81,879.84,589.76Z" transform="translate(-202.46 -178.57)" fill="url(#New_Gradient_Swatch_1)"/><path d="M997.54,529.2V748.58a44.43,44.43,0,0,1-88.85,0v-65C973.21,750.61,992.13,622.25,997.54,529.2Z" transform="translate(-202.46 -178.57)" fill="url(#New_Gradient_Swatch_1)"/><path d="M762.13,554.13v304a44.43,44.43,0,1,1-88.85,0V708.5C737.8,775.54,756.72,647.19,762.13,554.13Z" transform="translate(-202.46 -178.57)" fill="url(#New_Gradient_Swatch_1)"/><path d="M291.31,585.88V807.07a44.43,44.43,0,1,1-88.85,0V761.15C270.86,830.55,287.42,678.43,291.31,585.88Z" transform="translate(-202.46 -178.57)" fill="url(#New_Gradient_Swatch_1)"/></g></g></svg>