<svg xmlns="http://www.w3.org/2000/svg" viewBox="0 0 1188.82 350.26"><g style="isolation:isolate"><g id="Layer_5" data-name="Layer 5"><path d="M237.22,549v99.61a15.82,15.82,0,0,1-31.63,0V549a15.82,15.82,0,0,1,31.63,0Z" transform="translate(-205.59 -424.87)"/><path d="M279.11,514.46V681a15.81,15.81,0,1,1-31.62,0V514.46a15.81,15.81,0,1,1,31.62,0Z" transform="translate(-205.59 -424.87)"/><path d="M321,565.57v83a15.82,15.82,0,0,1-31.63,0v-83a15.82,15.82,0,0,1,31.63,0Z" transform="translate(-205.59 -424.87)"/><path d="M362.91,440.68V711a15.82,15.82,0,1,1-31.63,0V440.68a15.82,15.82,0,0,1,31.63,0Z" transform="translate(-205.59 -424.87)"/><path d="M404.8,538.17v128.6a15.81,15.81,0,0,1-31.62,0V538.17a15.81,15.81,0,1,1,31.62,0Z" transform="translate(-205.59 -424.87)"/><path d="M446.7,560.83v108a15.81,15.81,0,0,1-31.62,0v-108a15.81,15.81,0,1,1,31.62,0Z" transform="translate(-205.59 -424.87)"/><path d="M488.6,542.91v84.85a15.82,15.82,0,0,1-31.63,0V542.91a15.82,15.82,0,0,1,31.63,0Z" transform="translate(-205.59 -424.87)"/><path d="M234.68,549v99.61a13.28,13.28,0,1,1-26.55,0V549a13.28,13.28,0,1,1,26.55,0Z" transform="translate(-205.59 -424.87)" style="mix-blend-mode:screen"/><path d="M276.58,514.46V681A13.28,13.28,0,1,1,250,681V514.46a13.28,13.28,0,0,1,26.56,0Z" transform="translate(-205.59 -424.87)" style="mix-blend-mode:screen"/><path d="M318.47,565.57v83a13.28,13.28,0,1,1-26.55,0v-83a13.28,13.28,0,1,1,26.55,0Z" transform="translate(-205.59 -424.87)" style="mix-blend-mode:screen"/><path d="M360.37,440.68V711a13.28,13.28,0,1,1-26.55,0V440.68a13.28,13.28,0,1,1,26.55,0Z" transform="translate(-205.59 -424.87)" style="mix-blend-mode:screen"/><path d="M402.27,538.17v128.6a13.28,13.28,0,0,1-26.56,0V538.17a13.28,13.28,0,0,1,26.56,0Z" transform="translate(-205.59 -424.87)" style="mix-blend-mode:screen"/><path d="M444.17,560.83v108a13.28,13.28,0,0,1-26.56,0v-108a13.28,13.28,0,0,1,26.56,0Z" transform="translate(-205.59 -424.87)" style="mix-blend-mode:screen"/><path d="M486.06,542.91v84.85a13.28,13.28,0,1,1-26.55,0V542.91a13.28,13.28,0,1,1,26.55,0Z" transform="translate(-205.59 -424.87)" style="mix-blend-mode:screen"/><path d="M279.11,574.92V681a15.81,15.81,0,1,1-31.62,0V628.91C270.29,652.69,277.11,608,279.11,574.92Z" transform="translate(-205.59 -424.87)" opacity="0.5" style="mix-blend-mode:overlay"/><path d="M321,581.26v67.32a15.82,15.82,0,0,1-31.63,0V635.25C312.18,659,319,614.33,321,581.26Z" transform="translate(-205.59 -424.87)" opacity="0.5" style="mix-blend-mode:overlay"/><path d="M362.91,545.87V711a15.82,15.82,0,1,1-31.63,0V600.81C354.25,624.68,361,579,362.91,545.87Z" transform="translate(-205.59 -424.87)" opacity="0.5" style="mix-blend-mode:overlay"/><path d="M446.7,571.23v97.64a15.81,15.81,0,0,1-31.62,0v-42.7C438,650,444.77,604.35,446.7,571.23Z" transform="translate(-205.59 -424.87)" opacity="0.5" style="mix-blend-mode:overlay"/><path d="M488.6,549.67v78.09a15.82,15.82,0,0,1-31.63,0V604.62C479.94,628.48,486.67,582.79,488.6,549.67Z" transform="translate(-205.59 -424.87)" opacity="0.5" style="mix-blend-mode:overlay"/><path d="M404.8,558.55V666.77a15.81,15.81,0,0,1-31.62,0V613.49C396.14,637.36,402.88,591.67,404.8,558.55Z" transform="translate(-205.59 -424.87)" opacity="0.5" style="mix-blend-mode:overlay"/><path d="M237.22,569.85v78.73a15.82,15.82,0,0,1-31.63,0V632.24C229.94,656.94,235.83,602.79,237.22,569.85Z" transform="translate(-205.59 -424.87)" opacity="0.5" style="mix-blend-mode:overlay"/><text transform="translate(301.68 250.06)" font-size="200" font-family="PFUniversalBlack-Regular, PF Universal">UpSpeech</text><text transform="translate(301.68 250.06)" font-size="200" fill="#231f20" font-family="PFUniversalBlack-Regular, PF Universal">UpSpeech</text></g></g></svg>