<svg xmlns="http://www.w3.org/2000/svg" viewBox="0 0 1188.82 350.26"><g style="isolation:isolate"><g id="Layer_4" data-name="Layer 4"><path d="M204.42,549v99.61a15.82,15.82,0,0,1-31.63,0V549a15.82,15.82,0,0,1,31.63,0Z" transform="translate(-172.79 -424.87)" fill="#fcfcfc"/><path d="M246.32,514.46V681a15.82,15.82,0,1,1-31.63,0V514.46a15.82,15.82,0,1,1,31.63,0Z" transform="translate(-172.79 -424.87)" fill="#fcfcfc"/><path d="M288.21,565.57v83a15.81,15.81,0,0,1-31.62,0v-83a15.81,15.81,0,1,1,31.62,0Z" transform="translate(-172.79 -424.87)" fill="#fcfcfc"/><path d="M330.11,440.68V711a15.81,15.81,0,1,1-31.62,0V440.68a15.81,15.81,0,1,1,31.62,0Z" transform="translate(-172.79 -424.87)" fill="#fcfcfc"/><path d="M372,538.17v128.6a15.82,15.82,0,0,1-31.63,0V538.17a15.82,15.82,0,0,1,31.63,0Z" transform="translate(-172.79 -424.87)" fill="#fcfcfc"/><path d="M413.91,560.83v108a15.82,15.82,0,0,1-31.63,0v-108a15.82,15.82,0,0,1,31.63,0Z" transform="translate(-172.79 -424.87)" fill="#fcfcfc"/><path d="M455.8,542.91v84.85a15.81,15.81,0,0,1-31.62,0V542.91a15.81,15.81,0,0,1,31.62,0Z" transform="translate(-172.79 -424.87)" fill="#fcfcfc"/><path d="M201.88,549v99.61a13.28,13.28,0,1,1-26.55,0V549a13.28,13.28,0,1,1,26.55,0Z" transform="translate(-172.79 -424.87)" fill="#fcfcfc" style="mix-blend-mode:screen"/><path d="M243.78,514.46V681a13.28,13.28,0,1,1-26.55,0V514.46a13.28,13.28,0,1,1,26.55,0Z" transform="translate(-172.79 -424.87)" fill="#fcfcfc" style="mix-blend-mode:screen"/><path d="M285.68,565.57v83a13.28,13.28,0,0,1-26.56,0v-83a13.28,13.28,0,0,1,26.56,0Z" transform="translate(-172.79 -424.87)" fill="#fcfcfc" style="mix-blend-mode:screen"/><path d="M327.58,440.68V711A13.28,13.28,0,1,1,301,711V440.68a13.28,13.28,0,0,1,26.56,0Z" transform="translate(-172.79 -424.87)" fill="#fcfcfc" style="mix-blend-mode:screen"/><path d="M369.47,538.17v128.6a13.28,13.28,0,0,1-26.55,0V538.17a13.28,13.28,0,1,1,26.55,0Z" transform="translate(-172.79 -424.87)" fill="#fcfcfc" style="mix-blend-mode:screen"/><path d="M411.37,560.83v108a13.28,13.28,0,1,1-26.55,0v-108a13.28,13.28,0,1,1,26.55,0Z" transform="translate(-172.79 -424.87)" fill="#fcfcfc" style="mix-blend-mode:screen"/><path d="M453.27,542.91v84.85a13.28,13.28,0,1,1-26.56,0V542.91a13.28,13.28,0,0,1,26.56,0Z" transform="translate(-172.79 -424.87)" fill="#fcfcfc" style="mix-blend-mode:screen"/><path d="M246.32,574.92V681a15.82,15.82,0,1,1-31.63,0V628.91C237.49,652.69,244.31,608,246.32,574.92Z" transform="translate(-172.79 -424.87)" fill="#fcfcfc" opacity="0.5" style="mix-blend-mode:overlay"/><path d="M288.21,581.26v67.32a15.81,15.81,0,0,1-31.62,0V635.25C279.39,659,286.21,614.33,288.21,581.26Z" transform="translate(-172.79 -424.87)" fill="#fcfcfc" opacity="0.5" style="mix-blend-mode:overlay"/><path d="M330.11,545.87V711a15.81,15.81,0,1,1-31.62,0V600.81C321.45,624.68,328.18,579,330.11,545.87Z" transform="translate(-172.79 -424.87)" fill="#fcfcfc" opacity="0.5" style="mix-blend-mode:overlay"/><path d="M413.91,571.23v97.64a15.82,15.82,0,0,1-31.63,0v-42.7C405.24,650,412,604.35,413.91,571.23Z" transform="translate(-172.79 -424.87)" fill="#fcfcfc" opacity="0.5" style="mix-blend-mode:overlay"/><path d="M455.8,549.67v78.09a15.81,15.81,0,0,1-31.62,0V604.62C447.14,628.48,453.88,582.79,455.8,549.67Z" transform="translate(-172.79 -424.87)" fill="#fcfcfc" opacity="0.5" style="mix-blend-mode:overlay"/><path d="M372,558.55V666.77a15.82,15.82,0,0,1-31.63,0V613.49C363.35,637.36,370.08,591.67,372,558.55Z" transform="translate(-172.79 -424.87)" fill="#fcfcfc" opacity="0.5" style="mix-blend-mode:overlay"/><path d="M204.42,569.85v78.73a15.82,15.82,0,0,1-31.63,0V632.24C197.14,656.94,203,602.79,204.42,569.85Z" transform="translate(-172.79 -424.87)" fill="#fcfcfc" opacity="0.5" style="mix-blend-mode:overlay"/><text transform="translate(301.68 250.06)" font-size="200" font-family="PFUniversalBlack-Regular, PF Universal">UpSpeech</text><text transform="translate(301.68 250.06)" font-size="200" fill="#fff" font-family="PFUniversalBlack-Regular, PF Universal">UpSpeech</text></g></g></svg>