<svg xmlns="http://www.w3.org/2000/svg" xmlns:xlink="http://www.w3.org/1999/xlink" viewBox="0 0 1188.82 350.26"><defs><linearGradient id="New_Gradient_Swatch_1" x1="531.08" y1="606.25" x2="1392.47" y2="606.25" gradientUnits="userSpaceOnUse"><stop offset="0" stop-color="#f7cac9"/><stop offset="0.47" stop-color="#daccd5"/><stop offset="1" stop-color="#b3cee5"/></linearGradient></defs><g style="isolation:isolate"><g id="Layer_2" data-name="Layer 2"><path d="M248.62,530.8v99.6a15.81,15.81,0,1,1-31.62,0V530.8a15.81,15.81,0,0,1,31.62,0Z" transform="translate(-217 -406.69)" fill="#d69494"/><path d="M290.52,496.28V662.82a15.82,15.82,0,0,1-31.63,0V496.28a15.82,15.82,0,0,1,31.63,0Z" transform="translate(-217 -406.69)" fill="#d69494"/><path d="M332.42,547.4v83a15.82,15.82,0,1,1-31.63,0v-83a15.82,15.82,0,1,1,31.63,0Z" transform="translate(-217 -406.69)" fill="#d69494"/><path d="M374.31,422.5V692.86a15.81,15.81,0,0,1-31.62,0V422.5a15.81,15.81,0,1,1,31.62,0Z" transform="translate(-217 -406.69)" fill="#d69494"/><path d="M416.21,520v128.6a15.81,15.81,0,0,1-31.62,0V520a15.81,15.81,0,0,1,31.62,0Z" transform="translate(-217 -406.69)" fill="#d69494"/><path d="M458.11,542.65v108a15.82,15.82,0,1,1-31.63,0v-108a15.82,15.82,0,0,1,31.63,0Z" transform="translate(-217 -406.69)" fill="#d69494"/><path d="M500,524.74v84.84a15.82,15.82,0,1,1-31.63,0V524.74a15.82,15.82,0,0,1,31.63,0Z" transform="translate(-217 -406.69)" fill="#d69494"/><path d="M246.09,530.8v99.6a13.28,13.28,0,0,1-26.56,0V530.8a13.28,13.28,0,1,1,26.56,0Z" transform="translate(-217 -406.69)" fill="#d69494" style="mix-blend-mode:screen"/><path d="M288,496.28V662.82a13.28,13.28,0,0,1-26.55,0V496.28a13.28,13.28,0,1,1,26.55,0Z" transform="translate(-217 -406.69)" fill="#d69494" style="mix-blend-mode:screen"/><path d="M329.88,547.4v83a13.28,13.28,0,1,1-26.55,0v-83a13.28,13.28,0,1,1,26.55,0Z" transform="translate(-217 -406.69)" fill="#d69494" style="mix-blend-mode:screen"/><path d="M371.78,422.5V692.86a13.28,13.28,0,0,1-26.55,0V422.5a13.28,13.28,0,1,1,26.55,0Z" transform="translate(-217 -406.69)" fill="#d69494" style="mix-blend-mode:screen"/><path d="M413.68,520v128.6a13.28,13.28,0,0,1-26.56,0V520a13.28,13.28,0,0,1,26.56,0Z" transform="translate(-217 -406.69)" fill="#d69494" style="mix-blend-mode:screen"/><path d="M455.57,542.65v108a13.28,13.28,0,1,1-26.55,0v-108a13.28,13.28,0,1,1,26.55,0Z" transform="translate(-217 -406.69)" fill="#d69494" style="mix-blend-mode:screen"/><path d="M497.47,524.74v84.84a13.28,13.28,0,1,1-26.55,0V524.74a13.28,13.28,0,1,1,26.55,0Z" transform="translate(-217 -406.69)" fill="#d69494" style="mix-blend-mode:screen"/><path d="M290.52,556.74V662.82a15.82,15.82,0,0,1-31.63,0V610.74C281.69,634.51,288.52,589.81,290.52,556.74Z" transform="translate(-217 -406.69)" fill="#d69494" opacity="0.5" style="mix-blend-mode:overlay"/><path d="M332.42,563.08V630.4a15.82,15.82,0,1,1-31.63,0V617.08C323.59,640.85,330.41,596.15,332.42,563.08Z" transform="translate(-217 -406.69)" fill="#d69494" opacity="0.5" style="mix-blend-mode:overlay"/><path d="M374.31,527.69V692.86a15.81,15.81,0,0,1-31.62,0V582.64C365.65,606.5,372.39,560.81,374.31,527.69Z" transform="translate(-217 -406.69)" fill="#d69494" opacity="0.5" style="mix-blend-mode:overlay"/><path d="M458.11,553.05v97.64a15.82,15.82,0,1,1-31.63,0V608C449.45,631.86,456.18,586.17,458.11,553.05Z" transform="translate(-217 -406.69)" fill="#d69494" opacity="0.5" style="mix-blend-mode:overlay"/><path d="M500,531.5v78.08a15.82,15.82,0,1,1-31.63,0V586.44C491.34,610.31,498.08,564.62,500,531.5Z" transform="translate(-217 -406.69)" fill="#d69494" opacity="0.5" style="mix-blend-mode:overlay"/><path d="M416.21,540.37V648.59a15.81,15.81,0,0,1-31.62,0V595.32C407.55,619.18,414.28,573.49,416.21,540.37Z" transform="translate(-217 -406.69)" fill="#d69494" opacity="0.5" style="mix-blend-mode:overlay"/><path d="M248.62,551.67V630.4a15.81,15.81,0,1,1-31.62,0V614.06C241.34,638.76,247.24,584.61,248.62,551.67Z" transform="translate(-217 -406.69)" fill="#d69494" opacity="0.5" style="mix-blend-mode:overlay"/></g><g id="Layer_3" data-name="Layer 3"><text transform="translate(301.68 250.06)" font-size="200" font-family="PFUniversalBlack-Regular, PF Universal">UpSpeech</text><path d="M629.48,633.15c-9,15.8-27.6,25.6-45.4,25.6s-37-9.8-46-25.8c-5.6-10.2-7-19.4-7-35.2V514.16h32.2v83.39c0,15,5.4,28.8,20.8,28.8,6.6,0,14.6-4.2,17.8-10,1.8-4,2.8-6.2,2.8-18.2v-84h32.2v84C636.88,613.15,635.68,623,629.48,633.15Z" transform="translate(-217 -406.69)" fill="url(#New_Gradient_Swatch_1)"/><path d="M710.88,660.55a49.17,49.17,0,0,1-18.8-3.6v43.8h-31.2v-85c0-14.2,1.4-22.8,7-32.6a49.31,49.31,0,0,1,42.8-24.8c27.8,0,49.8,22.6,49.8,51.2C760.48,637.75,738.88,660.55,710.88,660.55Zm-.2-70.8c-10,0-18.6,8.8-18.6,19.2,0,11.8,8.6,20,18.4,20,10.2,0,18.8-8.6,18.8-19.4C729.28,598.35,720.48,589.75,710.68,589.75Z" transform="translate(-217 -406.69)" fill="url(#New_Gradient_Swatch_1)"/><path d="M813.47,659.35c-10.2,0-25.8-1.6-44.2-11l8.6-30.4c18.2,7.4,27,10.4,36,10.4,10.6,0,16.8-6.2,16.8-14.2,0-10.8-12.2-11.8-19.8-14-20.8-5.4-36.6-17.6-36.6-42.4,0-16,8.4-31.4,21.2-39.4q10.5-6.58,27.6-6.59c9.4,0,24.4,2.59,38,8L850.47,550c-13-6-19.2-7.4-27-7.4-10.6,0-17,6-17,13.4,0,6.6,2.4,9.4,16.2,13.2,22.4,5.8,40.6,14.6,40.6,44.2C863.27,641.15,843.07,659.35,813.47,659.35Z" transform="translate(-217 -406.69)" fill="url(#New_Gradient_Swatch_1)"/><path d="M927.07,660.55a49.17,49.17,0,0,1-18.8-3.6v43.8h-31.2v-85c0-14.2,1.4-22.8,7-32.6a49.31,49.31,0,0,1,42.8-24.8c27.8,0,49.8,22.6,49.8,51.2C976.67,637.75,955.07,660.55,927.07,660.55Zm-.2-70.8c-10,0-18.6,8.8-18.6,19.2,0,11.8,8.6,20,18.4,20,10.2,0,18.8-8.6,18.8-19.4C945.47,598.35,936.67,589.75,926.87,589.75Z" transform="translate(-217 -406.69)" fill="url(#New_Gradient_Swatch_1)"/><path d="M1087.67,604.15c.6,4.6.2,8.2-.6,13.2h-66c1.6,10.6,12,12.2,16.6,12.2,3.2,0,11-.6,16.4-7.2l17.6,23c-14,11.4-25.8,12.8-34.2,12.8-26.6,0-49-22.2-49-49.8a49.59,49.59,0,0,1,49.8-50C1064.27,558.35,1085.47,578,1087.67,604.15Zm-34.4-8.2c-2.4-6.4-7.2-10.8-15.4-10.8-8,0-12.6,5.8-14.8,10.8Z" transform="translate(-217 -406.69)" fill="url(#New_Gradient_Swatch_1)"/><path d="M1199.67,604.15c.6,4.6.2,8.2-.6,13.2h-66c1.6,10.6,12,12.2,16.6,12.2,3.2,0,11-.6,16.4-7.2l17.6,23c-14,11.4-25.8,12.8-34.2,12.8-26.6,0-49-22.2-49-49.8a49.59,49.59,0,0,1,49.8-50C1176.27,558.35,1197.47,578,1199.67,604.15Zm-34.4-8.2c-2.4-6.4-7.2-10.8-15.4-10.8-8,0-12.6,5.8-14.8,10.8Z" transform="translate(-217 -406.69)" fill="url(#New_Gradient_Swatch_1)"/><path d="M1260.47,658.15c-26.4,0-48-22.6-48-49.8,0-27.8,21.6-50,48.8-50,9.8,0,19,3,29.6,10l-15.6,27.4c-6.4-5.4-10.2-6.6-14-6.6-9.6,0-18,8.2-18,19.2,0,10.6,8.6,19,17.4,19,4.2,0,8-1.4,14.2-6.2l16.6,26.4C1280.47,655,1270.87,658.15,1260.47,658.15Z" transform="translate(-217 -406.69)" fill="url(#New_Gradient_Swatch_1)"/><path d="M1361.87,604.55c0-8.2-2.4-16.4-12.2-16.4-4.6,0-9.4,3-11,6.8-1,1.8-1.4,5-1.4,9.4v52.4h-30.6V518.35h30.8v44a34.31,34.31,0,0,1,16.4-3.8c12.8,0,24.8,6,31.8,17,5.4,8,6.8,14.8,6.8,29.2v52h-30.6Z" transform="translate(-217 -406.69)" fill="url(#New_Gradient_Swatch_1)"/></g></g></svg>